# Blender v2.75 (sub 0) OBJ File: ''
# www.blender.org
o podium_Layer_01.000
v -1.071000 0.132500 0.788100
v -1.071000 0.862100 1.325000
v -1.071000 0.891800 1.285000
v -1.071000 0.162100 0.747800
v 1.072000 0.862100 1.325000
v 1.072000 0.891800 1.285000
v 1.072000 0.132500 0.788100
v 1.072000 0.162100 0.747800
v -1.021000 0.172800 0.817700
v 1.022000 0.172800 0.817700
v 1.022000 0.202400 0.777400
v -1.021000 0.202400 0.777400
v 1.022000 0.821900 1.295000
v 1.022000 0.851500 1.255000
v -1.021000 0.821900 1.295000
v -1.021000 0.851500 1.255000
v -1.187000 1.187000 0.400000
v -1.187000 -1.187000 0.400000
v -1.021000 0.187600 0.400000
v 1.187000 -1.187000 0.400000
v 1.187000 1.187000 0.400000
v -1.021000 0.836700 0.400000
v 1.022000 0.187600 0.400000
v 1.022000 0.836700 0.400000
v -1.187000 -1.187000 0.200000
v -1.187000 1.187000 0.200000
v 1.187000 -1.187000 0.200000
v 1.187000 1.187000 0.200000
v -1.500000 -1.500000 0.000000
v -1.500000 -1.500000 0.200000
v -1.500000 1.500000 0.200000
v -1.500000 1.500000 0.000000
v 1.500000 -1.500000 0.000000
v 1.500000 -1.500000 0.200000
v 1.500000 1.500000 0.000000
v 1.500000 1.500000 0.200000
v -1.021000 0.836700 0.837500
v -1.021000 0.512100 0.400000
v -1.021000 0.836700 0.400000
v -1.021000 0.187600 0.400000
v -1.021000 0.512100 1.036000
v -1.021000 0.187600 0.797600
v -1.021000 0.836700 1.275000
v 1.022000 0.187600 0.400000
v 1.022000 0.187600 0.797600
v 1.022000 0.836700 0.837500
v 1.022000 0.836700 0.400000
v 1.022000 0.836700 1.275000
vt 0.000000 0.000000
vt 0.006338 0.000000
vt 0.006338 0.513400
vt 0.000000 0.513400
vt 0.012680 0.000000
vt 0.012680 0.513400
vt 0.019020 0.000000
vt 0.019020 0.513400
vt 0.277900 0.000000
vt 0.277900 0.513400
vt 0.536800 0.000000
vt 0.536800 0.513400
vt 0.639000 0.000000
vt 0.639000 0.513400
vt 0.897800 0.000000
vt 0.897800 0.513400
vt 1.000000 0.000000
vt 1.000000 0.513400
vt 0.004240 0.540300
vt 0.004240 0.973100
vt 0.000000 1.000000
vt 0.177400 0.973100
vt 0.177400 0.540300
vt 0.181700 1.000000
vt 0.181700 0.513400
vt 0.297700 0.000000
vt 0.739500 0.000000
vt 0.483700 0.030840
vt 0.739500 0.440300
vt 0.297700 0.440300
vt 0.362900 0.030840
vt 0.483700 0.409600
vt 0.362900 0.409600
vt 0.037220 0.441700
vt 0.072970 0.441700
vt 0.072970 0.000000
vt 0.037220 0.000000
vt 0.000000 0.441700
vt 0.035750 0.441700
vt 0.035750 0.000000
vt 0.111700 0.441700
vt 0.147400 0.441700
vt 0.147400 0.000000
vt 0.111700 0.000000
vt 0.074430 0.441700
vt 0.110200 0.441700
vt 0.110200 0.000000
vt 0.074430 0.000000
vt 0.186100 0.558300
vt 0.221800 0.558300
vt 0.221800 0.000000
vt 0.186100 0.000000
vt 0.148900 0.558300
vt 0.184600 0.558300
vt 0.184600 0.000000
vt 0.148900 0.000000
vt 0.260500 0.558300
vt 0.296300 0.558300
vt 0.296300 0.000000
vt 0.260500 0.000000
vt 0.223300 0.558300
vt 0.259100 0.558300
vt 0.259100 0.000000
vt 0.223300 0.000000
vt 0.796400 0.499800
vt 0.355800 0.499800
vt 0.297700 0.441700
vt 0.854500 0.441700
vt 0.854500 0.998500
vt 0.796400 0.940400
vt 0.355800 0.940400
vt 0.297700 0.998500
vt 0.335800 0.000000
vt 0.159900 0.000000
vt 0.159900 0.161300
vt 0.159900 0.322600
vt 0.511800 0.322600
vt 0.511800 0.161300
vt 0.511800 0.000000
vt 0.000000 0.821300
vt 0.158400 0.821300
vt 0.158400 0.000000
vt 0.335800 0.646600
vt 0.159900 0.324000
vt 0.159900 0.646600
vt 0.511800 0.646600
vt 0.511800 0.324000
vt 0.159900 0.648100
vt 0.159900 0.823300
vt 0.979700 0.823300
vt 0.979700 0.648100
vt 0.979700 0.998500
vt 0.159900 0.998500
vn -1.000000 0.000000 0.000000
vn -0.000000 0.805500 0.592600
vn 1.000000 0.000000 0.000000
vn 0.000000 -0.805700 -0.592400
vn 0.000000 0.805600 0.592400
vn -0.000000 -0.805500 -0.592600
vn -0.000000 -0.592600 0.805500
vn -0.000300 -0.592200 0.805800
vn -0.000100 -0.592500 0.805600
vn 0.000300 -0.592200 0.805800
vn 0.000500 -0.592200 0.805800
vn 0.000000 0.592600 -0.805500
vn 0.000600 0.592300 -0.805700
vn 0.000200 0.592500 -0.805600
vn -0.000400 0.592300 -0.805700
vn -0.000100 0.592500 -0.805600
vn -0.000000 0.000000 1.000000
vn 0.000000 -1.000000 0.000000
vn 0.000000 1.000000 0.000000
s 1
f 1/1/1 2/2/1 3/3/1 4/4/1
f 2/2/2 5/5/2 6/6/2 3/3/2
f 5/5/3 7/7/3 8/8/3 6/6/3
f 7/7/4 1/9/4 4/10/4 8/8/4
f 9/9/5 10/11/5 11/12/5 12/10/5
f 10/11/1 13/13/1 14/14/1 11/12/1
f 13/13/6 15/15/6 16/16/6 14/14/6
f 15/15/3 9/17/3 12/18/3 16/16/3
f 13/19/7 10/20/8 7/21/9
f 9/22/10 7/21/9 10/20/8
f 15/23/7 13/19/7 5/4/7
f 7/21/9 5/4/7 13/19/7
f 15/23/7 1/24/11 9/22/10
f 7/21/9 9/22/10 1/24/11
f 5/4/7 2/25/7 15/23/7
f 1/24/11 15/23/7 2/25/7
f 14/20/12 8/4/13 11/19/14
f 12/23/15 11/19/14 8/4/13
f 16/22/12 6/21/12 14/20/12
f 8/4/13 14/20/12 6/21/12
f 16/22/12 12/23/15 4/25/16
f 8/4/13 4/25/16 12/23/15
f 6/21/12 16/22/12 3/24/12
f 4/25/16 3/24/12 16/22/12
f 17/26/17 18/27/17 19/28/17
f 20/29/17 19/28/17 18/27/17
f 21/30/17 17/26/17 22/31/17
f 19/28/17 22/31/17 17/26/17
f 21/30/17 23/32/17 20/29/17
f 19/28/17 20/29/17 23/32/17
f 22/31/17 24/33/17 21/30/17
f 23/32/17 21/30/17 24/33/17
f 25/34/1 18/35/1 17/36/1 26/37/1
f 27/38/18 20/39/18 18/40/18 25/1/18
f 28/41/3 21/42/3 20/43/3 27/44/3
f 26/45/19 17/46/19 21/47/19 28/48/19
f 29/49/1 30/50/1 31/51/1 32/52/1
f 33/53/18 34/54/18 30/55/18 29/56/18
f 35/57/3 36/58/3 34/59/3 33/60/3
f 32/61/19 31/62/19 36/63/19 35/64/19
f 25/65/17 26/66/17 31/67/17 30/68/17
f 30/68/17 34/69/17 27/70/17 25/65/17
f 26/66/17 28/71/17 36/72/17 31/67/17
f 34/69/17 36/72/17 28/71/17 27/70/17
f 37/73/1 39/74/1 38/75/1
f 40/76/1 42/77/1 41/78/1 38/75/1
f 41/78/1 43/79/1 37/73/1
f 37/73/1 38/75/1 41/78/1
f 44/80/18 45/81/18 42/82/18 40/1/18
f 46/83/3 44/84/3 47/85/3
f 48/86/3 45/87/3 46/83/3
f 44/84/3 46/83/3 45/87/3
f 39/88/19 37/89/19 46/90/19 47/91/19
f 48/92/19 46/90/19 37/89/19 43/93/19
o message_Layer_02.001
v 1.022000 0.836700 1.275000
v -1.021000 0.836700 1.275000
v -1.021000 0.187600 0.797600
v 1.022000 0.187600 0.797600
vt 0.999911 0.893572
vt 0.000089 0.893572
vt 0.000089 0.104916
vt 0.999911 0.104916
vn 0.000000 -0.592500 0.805600
s 1
f 49/94/20 50/95/20 51/96/20 52/97/20
