<?xml version="1.0" encoding="utf-8"?>
<!-- Generator: Adobe Illustrator 15.0.0, SVG Export Plug-In . SVG Version: 6.00 Build 0)  -->
<!DOCTYPE svg PUBLIC "-//W3C//DTD SVG 1.1 Tiny//EN" "http://www.w3.org/Graphics/SVG/1.1/DTD/svg11-tiny.dtd">
<svg version="1.1" baseProfile="tiny" id="Layer_1" xmlns="http://www.w3.org/2000/svg" xmlns:xlink="http://www.w3.org/1999/xlink"
	 x="0px" y="0px" width="32px" height="32px" viewBox="0 0 32 32" overflow="inherit" xml:space="preserve">
<g>
	<path fill="#999999" d="M20.553,24.944H10.449c-0.508,0-0.918,0.412-0.918,0.919s0.41,0.919,0.918,0.919h10.104
		c0.508,0,0.919-0.412,0.919-0.919S21.061,24.944,20.553,24.944z"/>
	<path fill="#999999" d="M26.639,3.817H4.364c-0.952,0-1.723,0.772-1.723,1.723v15.846c0,0.951,0.771,1.722,1.723,1.722h22.274
		c0.951,0,1.722-0.771,1.722-1.722V5.54C28.36,4.589,27.59,3.817,26.639,3.817z M26.523,19.434H4.478V5.655h22.046V19.434z"/>
</g>
</svg>
