<?xml version="1.0" encoding="utf-8"?>
<!-- Generator: Adobe Illustrator 15.0.0, SVG Export Plug-In . SVG Version: 6.00 Build 0)  -->
<!DOCTYPE svg PUBLIC "-//W3C//DTD SVG 1.1 Tiny//EN" "http://www.w3.org/Graphics/SVG/1.1/DTD/svg11-tiny.dtd">
<svg version="1.1" baseProfile="tiny" id="Layer_1" xmlns="http://www.w3.org/2000/svg" xmlns:xlink="http://www.w3.org/1999/xlink"
	 x="0px" y="0px" width="32px" height="32px" viewBox="0 0 32 32" overflow="inherit" xml:space="preserve">
<path fill="#FFC107" d="M24.342,5.66l-8.843-2.197L6.655,5.66C5.599,5.917,4.858,6.858,4.886,7.942v11.554
	c0,0.685,0.286,1.312,0.798,1.769l8.273,7.274c0.884,0.771,2.225,0.771,3.109,0l8.273-7.274c0.514-0.456,0.799-1.084,0.799-1.769
	V7.942C26.111,6.858,25.397,5.917,24.342,5.66z M15.499,22.149c-0.97,0-1.769-0.799-1.769-1.769c0-0.971,0.799-1.77,1.769-1.77
	c0.971,0,1.77,0.799,1.77,1.77C17.269,21.351,16.469,22.149,15.499,22.149z M17.269,12.421c-0.059,0.285-0.201,0.742-0.401,1.312
	c-0.285,0.856-0.485,1.512-0.57,2.025c-0.114,0.485-0.172,0.97-0.2,1.483c0,0.172-0.028,0.371-0.142,0.514
	c-0.085,0.114-0.257,0.172-0.399,0.143c-0.114,0-0.257-0.028-0.342-0.114c-0.086-0.113-0.143-0.285-0.143-0.428
	c-0.029-0.399-0.057-0.685-0.086-0.856c-0.028-0.171-0.085-0.428-0.171-0.799c-0.143-0.57-0.342-1.169-0.571-1.825
	c-0.285-0.771-0.457-1.284-0.514-1.569c-0.085-0.313-0.114-0.627-0.114-0.941c0-0.514,0.171-1.027,0.513-1.426
	c0.343-0.428,0.856-0.685,1.398-0.656c0.514,0,0.999,0.228,1.312,0.627c0.371,0.457,0.542,1.027,0.513,1.626
	C17.353,11.851,17.324,12.136,17.269,12.421z"/>
</svg>
