<?xml version="1.0" encoding="utf-8"?>
<!-- Generator: Adobe Illustrator 15.0.0, SVG Export Plug-In . SVG Version: 6.00 Build 0)  -->
<!DOCTYPE svg PUBLIC "-//W3C//DTD SVG 1.1 Tiny//EN" "http://www.w3.org/Graphics/SVG/1.1/DTD/svg11-tiny.dtd">
<svg version="1.1" baseProfile="tiny" id="Layer_1" xmlns="http://www.w3.org/2000/svg" xmlns:xlink="http://www.w3.org/1999/xlink"
	 x="0px" y="0px" width="32px" height="32px" viewBox="0 0 32 32" overflow="inherit" xml:space="preserve">
<path fill="#999999" d="M26.541,8.122H5.494c-1.463,0-2.647,1.185-2.647,2.648v9.059c0,1.464,1.185,2.649,2.647,2.649h7.631
	l1.743-3.137c0.522-0.872,1.777-0.872,2.265,0l1.742,3.137h7.63c1.464,0,2.648-1.186,2.648-2.649v-9.059
	C29.188,9.307,28.004,8.122,26.541,8.122z M10.024,18.47c-1.777,0-3.206-1.427-3.206-3.205c0-1.777,1.428-3.206,3.206-3.206
	c1.777,0,3.206,1.429,3.206,3.206C13.23,17.043,11.801,18.47,10.024,18.47z M21.697,18.47c-1.777,0-3.207-1.427-3.207-3.205
	c0-1.777,1.43-3.206,3.207-3.206c1.776,0,3.204,1.429,3.204,3.206C24.901,17.043,23.474,18.47,21.697,18.47z"/>
</svg>
