# Blender v2.75 (sub 0) OBJ File: 'frame.blend'
# www.blender.org
mtllib frame.mtl
o painting_Default.002
v 0.963796 1.057940 0.000000
v -1.036104 1.057940 0.000000
v -1.036104 0.057939 0.000000
v 0.963796 0.057939 0.000000
vt 0.000062 1.000000
vt 0.000062 0.000000
vt 0.999981 -0.000174
vt 0.999981 0.999826
vn 0.000000 0.000000 -1.000000
usemtl None
s 1
f 1/1/1 4/2/1 3/3/1 2/4/1
o frame_Default.001
v -1.086104 0.007939 0.000000
v -1.086104 1.107939 0.000000
v -1.086104 1.107939 -0.050000
v -1.086104 0.007939 -0.050000
v 1.013796 1.107939 0.000000
v 1.013796 1.107939 -0.050000
v 1.013796 0.007939 0.000000
v 1.013796 0.007939 -0.050000
v -1.036104 0.057939 0.000000
v 0.963796 0.057939 0.000000
v 0.963796 0.057939 -0.050000
v -1.036104 0.057939 -0.050000
v 0.963796 1.057940 0.000000
v 0.963796 1.057940 -0.050000
v -1.036104 1.057940 0.000000
v -1.036104 1.057940 -0.050000
vt 0.000000 0.000000
vt 0.006135 0.000000
vt 0.006135 0.511100
vt 0.000000 0.511100
vt 0.012270 0.000000
vt 0.012270 0.511100
vt 0.018400 0.000000
vt 0.018400 0.511100
vt 0.263800 0.000000
vt 0.263800 0.511100
vt 0.509200 0.000000
vt 0.509200 0.511100
vt 0.631900 0.000000
vt 0.631900 0.511100
vt 0.877300 0.000000
vt 0.877300 0.511100
vt 1.000000 0.000000
vt 1.000000 0.511100
vt 0.004032 0.977800
vt 0.000000 1.000000
vt 0.165300 0.977800
vt 0.165300 0.533300
vt 0.004032 0.533300
vt 0.169400 0.511100
vt 0.169400 1.000000
vn -1.000000 -0.000000 0.000000
vn 0.000000 1.000000 0.000000
vn 1.000000 0.000000 0.000000
vn 0.000000 -1.000000 0.000000
vn -0.000000 -0.000000 1.000000
vn 0.000000 0.000000 -1.000000
usemtl None_NONE
s 1
f 5/5/2 6/6/2 7/7/2 8/8/2
f 6/6/3 9/9/3 10/10/3 7/7/3
f 9/9/4 11/11/4 12/12/4 10/10/4
f 11/11/5 5/13/5 8/14/5 12/12/5
f 13/13/3 14/15/3 15/16/3 16/14/3
f 14/15/2 17/17/2 18/18/2 15/16/2
f 17/17/5 19/19/5 20/20/5 18/18/5
f 19/19/4 13/21/4 16/22/4 20/20/4
f 9/8/6 14/23/6 11/24/6
f 13/25/6 11/24/6 14/23/6
f 19/26/6 17/27/6 9/8/6
f 14/23/6 9/8/6 17/27/6
f 6/28/6 5/29/6 13/25/6
f 11/24/6 13/25/6 5/29/6
f 9/8/6 6/28/6 19/26/6
f 13/25/6 19/26/6 6/28/6
f 10/24/7 12/8/7 15/27/7
f 16/26/7 15/27/7 12/8/7
f 20/25/7 10/24/7 18/23/7
f 15/27/7 18/23/7 10/24/7
f 7/29/7 16/26/7 8/28/7
f 12/8/7 8/28/7 16/26/7
f 10/24/7 20/25/7 7/29/7
f 16/26/7 7/29/7 20/25/7
